<svg xmlns="http://www.w3.org/2000/svg" height="512pt" version="1.1" viewBox="0 0 512 512" width="512pt">
<g id="surface1">
<path d="M 497 40.164062 L 15 40.164062 C 6.714844 40.164062 0 46.882812 0 55.164062 L 0 296.164062 C 0 304.449219 6.714844 311.164062 15 311.164062 L 497 311.164062 C 505.28125 311.164062 512 304.449219 512 296.164062 L 512 55.164062 C 512 46.882812 505.28125 40.164062 497 40.164062 Z M 497 40.164062 " style=" stroke:none;fill-rule:nonzero;fill:rgb(92.156863%,96.470588%,100%);fill-opacity:1;" />
<path d="M 497 40.164062 L 256 40.164062 L 256 311.164062 L 497 311.164062 C 505.28125 311.164062 512 304.449219 512 296.164062 L 512 55.164062 C 512 46.882812 505.28125 40.164062 497 40.164062 Z M 497 40.164062 " style=" stroke:none;fill-rule:nonzero;fill:rgb(69.803922%,86.27451%,100%);fill-opacity:1;" />
<path d="M 497 40.164062 L 376.5 40.164062 C 368.214844 40.164062 361.5 46.882812 361.5 55.164062 L 361.5 160.664062 L 271 160.664062 L 271 55.164062 C 271 46.882812 264.28125 40.164062 256 40.164062 L 135.5 40.164062 C 127.214844 40.164062 120.5 46.882812 120.5 55.164062 L 120.5 160.664062 L 15 160.664062 C 6.714844 160.664062 0 167.382812 0 175.664062 L 0 296.164062 C 0 304.449219 6.714844 311.164062 15 311.164062 L 135.5 311.164062 C 143.78125 311.164062 150.5 304.449219 150.5 296.164062 L 150.5 190.664062 L 241 190.664062 L 241 296.164062 C 241 304.449219 247.714844 311.164062 256 311.164062 L 376.5 311.164062 C 384.78125 311.164062 391.5 304.449219 391.5 296.164062 L 391.5 190.664062 L 497 190.664062 C 505.28125 190.664062 512 183.949219 512 175.664062 L 512 55.164062 C 512 46.882812 505.28125 40.164062 497 40.164062 Z M 497 40.164062 " style=" stroke:none;fill-rule:nonzero;fill:rgb(0%,35.294118%,69.411765%);fill-opacity:1;" />
<path d="M 497 40.164062 L 376.5 40.164062 C 368.214844 40.164062 361.5 46.882812 361.5 55.164062 L 361.5 160.664062 L 271 160.664062 L 271 55.164062 C 271 46.882812 264.28125 40.164062 256 40.164062 L 256 311.164062 L 376.5 311.164062 C 384.78125 311.164062 391.5 304.449219 391.5 296.164062 L 391.5 190.664062 L 497 190.664062 C 505.28125 190.664062 512 183.949219 512 175.664062 L 512 55.164062 C 512 46.882812 505.28125 40.164062 497 40.164062 Z M 497 40.164062 " style=" stroke:none;fill-rule:nonzero;fill:rgb(0%,20.392157%,36.078431%);fill-opacity:1;" />
<path d="M 15 512 C 6.714844 512 0 505.285156 0 497 L 0 15 C 0 6.714844 6.714844 0 15 0 C 23.28125 0 30 6.714844 30 15 L 30 497 C 30 505.285156 23.28125 512 15 512 Z M 15 512 " style=" stroke:none;fill-rule:nonzero;fill:rgb(73.333333%,36.470588%,29.803922%);fill-opacity:1;" />
<path d="M 497 512 C 488.714844 512 482 505.285156 482 497 L 482 15 C 482 6.714844 488.714844 0 497 0 C 505.28125 0 512 6.714844 512 15 L 512 497 C 512 505.285156 505.28125 512 497 512 Z M 497 512 " style=" stroke:none;fill-rule:nonzero;fill:rgb(64.313725%,30.980392%,24.313725%);fill-opacity:1;" />
</g>
</svg>