<?xml version="1.0" encoding="UTF-8"?>
<!DOCTYPE svg PUBLIC "-//W3C//DTD SVG 1.1//EN" "http://www.w3.org/Graphics/SVG/1.1/DTD/svg11.dtd">
<!-- Creator: CorelDRAW X7 -->
<svg xmlns="http://www.w3.org/2000/svg" xml:space="preserve" width="18.9929mm" height="18.9929mm" version="1.1" style="shape-rendering:geometricPrecision; text-rendering:geometricPrecision; image-rendering:optimizeQuality; fill-rule:evenodd; clip-rule:evenodd"
viewBox="0 0 11453 11453"
 xmlns:xlink="http://www.w3.org/1999/xlink">
 <defs>
  <style type="text/css">
   <![CDATA[
    .fil1 {fill:none}
    .fil0 {fill:#818181}
   ]]>
  </style>
 </defs>
 <g id="Layer_x0020_1">
  <metadata id="CorelCorpID_0Corel-Layer"/>
  <g id="_2997137592064">
   <path class="fil0" d="M11211 4647c-14,-68 -62,-125 -126,-151 -571,-227 -1176,-342 -1798,-342 -970,0 -1719,277 -2008,402l-3085 -2624c108,-947 -402,-1594 -425,-1622 -37,-46 -92,-74 -151,-78 -58,-1 -116,19 -157,61l-3162 3162c-42,41 -64,99 -61,158 4,59 32,114 78,151 453,358 1004,434 1387,434 86,0 159,-4 215,-8l2637 3099c-180,463 -730,2129 -64,3801 26,65 82,112 151,126 13,3 28,5 41,5 55,0 108,-22 147,-61l3020 -3020 2813 2813c40,40 93,61 146,61 54,0 107,-21 147,-61 81,-81 81,-212 0,-293l-2813 -2813 3011 -3012c50,-49 71,-120 57,-188z"/>
   <g>
   </g>
   <g>
   </g>
   <g>
   </g>
   <g>
   </g>
   <g>
   </g>
   <g>
   </g>
   <g>
   </g>
   <g>
   </g>
   <g>
   </g>
   <g>
   </g>
   <g>
   </g>
   <g>
   </g>
   <g>
   </g>
   <g>
   </g>
   <g>
   </g>
  </g>
  <rect class="fil1" width="11453" height="11453"/>
 </g>
</svg>
