<?xml version="1.0" encoding="UTF-8"?>
<!DOCTYPE svg PUBLIC "-//W3C//DTD SVG 1.1//EN" "http://www.w3.org/Graphics/SVG/1.1/DTD/svg11.dtd">
<!-- Creator: CorelDRAW X7 -->
<svg xmlns="http://www.w3.org/2000/svg" xml:space="preserve" width="18.9929mm" height="18.9929mm" version="1.1" style="shape-rendering:geometricPrecision; text-rendering:geometricPrecision; image-rendering:optimizeQuality; fill-rule:evenodd; clip-rule:evenodd"
viewBox="0 0 786 786"
 xmlns:xlink="http://www.w3.org/1999/xlink">
 <defs>
  <style type="text/css">
   <![CDATA[
    .fil0 {fill:none}
    .fil1 {fill:#818181;fill-rule:nonzero}
   ]]>
  </style>
 </defs>
 <g id="Layer_x0020_1">
  <metadata id="CorelCorpID_0Corel-Layer"/>
  <rect class="fil0" width="786" height="786"/>
  <path class="fil1" d="M15 384l756 0 0 42 -756 0 0 -42zm748 -65c-1,-5 -4,-9 -9,-10 -39,-16 -80,-24 -123,-24 -66,0 -118,19 -138,28l-211 -180c7,-65 -28,-109 -29,-111 -3,-3 -6,-5 -10,-6 -4,0 -8,2 -11,5l-217 216c-3,3 -4,7 -4,11 0,4 2,8 5,10 31,25 69,30 95,30 6,0 11,0 15,0l52 61 564 0 17 -17c3,-3 5,-8 4,-13zm-489 142l33 39c-13,32 -50,146 -5,260 2,5 6,8 11,9 1,0 2,0 3,0 3,0 7,-1 10,-4l207 -207 192 193c3,3 7,4 10,4 4,0 8,-1 10,-4 6,-5 6,-14 0,-20l-192 -193 77 -77 -356 0z"/>
 </g>
</svg>
