<svg height="512pt" viewBox="0 0 512 512" width="512pt" xmlns="http://www.w3.org/2000/svg"><path d="m512 256c0 141.386719-114.613281 256-256 256s-256-114.613281-256-256 114.613281-256 256-256 256 114.613281 256 256zm0 0" fill="#f15424"/><path d="m508.605469 214.324219c-46.511719-53.976563-139.222657-141.222657-252.605469-141.222657s-206.09375 87.246094-252.605469 141.222657c-2.21875 13.566406-3.394531 27.484375-3.394531 41.675781s1.175781 28.109375 3.394531 41.675781c46.511719 53.976563 139.222657 141.222657 252.605469 141.222657s206.09375-87.246094 252.605469-141.222657c2.21875-13.566406 3.394531-27.484375 3.394531-41.675781s-1.175781-28.109375-3.394531-41.675781zm0 0" fill="#f2f2f2"/><path d="m281 74.511719c-8.210938-.917969-16.546875-1.410157-25-1.410157-113.382812 0-206.09375 87.246094-252.605469 141.222657-2.21875 13.566406-3.394531 27.484375-3.394531 41.675781s1.175781 28.109375 3.394531 41.675781c46.511719 53.976563 139.222657 141.222657 252.605469 141.222657 8.453125 0 16.789062-.492188 25-1.410157-61.113281-6.847656-115.277344-37.777343-158.140625-72.21875-69.765625-56.0625-69.765625-162.476562 0-218.539062 42.863281-34.441407 97.027344-65.371094 158.140625-72.21875zm0 0" fill="#d9d8d7"/><path d="m256 135.925781c-66.316406 0-120.074219 53.757813-120.074219 120.074219s53.757813 120.074219 120.074219 120.074219 120.074219-53.757813 120.074219-120.074219h-120.074219zm0 0" fill="#465365"/><path d="m185.925781 256c0-48.472656 28.722657-90.230469 70.074219-109.195312v-10.878907c-66.316406 0-120.074219 53.757813-120.074219 120.074219s53.757813 120.074219 120.074219 120.074219c8.574219 0 16.933594-.902344 25-2.613281-54.316406-11.503907-95.074219-59.71875-95.074219-117.460938zm0 0" fill="#3e4959"/></svg>