<?xml version="1.0" encoding="iso-8859-1"?>
<!-- Generator: Adobe Illustrator 19.0.0, SVG Export Plug-In . SVG Version: 6.00 Build 0)  -->
<svg version="1.1" id="Capa_1" xmlns="http://www.w3.org/2000/svg" xmlns:xlink="http://www.w3.org/1999/xlink" x="0px" y="0px"
	 viewBox="0 0 512 512" style="enable-background:new 0 0 512 512;" xml:space="preserve">
<path style="fill:#C1D5FF;" d="M502,256.008c0,2.899-110.153,154.928-246,154.928s-246-153-246-154.928
	c0-2.896,110.153-154.928,246-154.928S502,254.08,502,256.008z"/>
<path style="fill:#FFFFFF;" d="M397.053,256.008c0-13.876-2.013-27.279-5.747-39.945l26.283-15.174l-33.059-57.26l-26.308,15.189
	c-18.424-19.371-42.298-33.503-69.162-39.956V88.508h-66.118v30.353c-26.864,6.453-50.739,20.585-69.162,39.956l-26.308-15.189
	l-33.059,57.26l26.283,15.174c-3.734,12.666-5.747,26.07-5.747,39.945c0,13.876,2.013,27.279,5.747,39.945l-26.283,15.174
	l33.059,57.26l26.308-15.189c18.424,19.371,42.298,33.503,69.162,39.956v30.353h66.118v-30.353
	c26.864-6.453,50.739-20.585,69.162-39.956l26.308,15.189l33.059-57.26l-26.283-15.174
	C395.039,283.287,397.053,269.883,397.053,256.008z"/>
<circle style="fill:#FFC365;" cx="256" cy="256.01" r="92"/>
<path d="M256,154.008c-56.243,0-102,45.757-102,102s45.757,102,102,102s102-45.757,102-102S312.243,154.008,256,154.008z
	 M256,338.008c-45.215,0-82-36.785-82-82s36.785-82,82-82s82,36.785,82,82S301.215,338.008,256,338.008z"/>
<path d="M256,227.096c6.533,0,11.848,4.409,11.848,9.828c0,5.523,4.478,10,10,10s10-4.477,10-10
	c0-13.175-9.172-24.375-21.848-28.313v-0.522c0-5.523-4.478-10-10-10s-10,4.477-10,10v0.522
	c-12.675,3.937-21.848,15.138-21.848,28.313c0,16.447,14.287,29.828,31.848,29.828c6.533,0,11.848,4.409,11.848,9.828
	s-5.314,9.828-11.848,9.828s-11.848-4.409-11.848-9.828c0-5.523-4.478-10-10-10s-10,4.477-10,10c0,13.18,9.178,24.383,21.86,28.317
	c0.129,5.41,4.547,9.758,9.988,9.758c5.441,0,9.858-4.348,9.988-9.758c12.682-3.934,21.86-15.137,21.86-28.317
	c0-16.447-14.287-29.828-31.848-29.828c-6.533,0-11.848-4.409-11.848-9.828C244.152,231.505,249.467,227.096,256,227.096z"/>
<path d="M436.128,100.279c1.953,1.953,4.512,2.929,7.071,2.929s5.118-0.976,7.071-2.929c3.905-3.905,3.905-10.237,0-14.143
	l-0.199-0.2c-3.906-3.905-10.236-3.905-14.143,0c-3.905,3.905-3.905,10.237,0,14.143L436.128,100.279z"/>
<path d="M60.25,399.008c-2.63,0-5.21,1.07-7.07,2.93s-2.93,4.44-2.93,7.07s1.069,5.21,2.93,7.07s4.44,2.93,7.07,2.93
	s5.21-1.07,7.069-2.93c1.86-1.86,2.931-4.44,2.931-7.07s-1.07-5.21-2.931-7.07C65.46,400.077,62.88,399.008,60.25,399.008z"/>
<path d="M512,256.008c0-0.454-0.001-0.868-0.035-1.288c-0.283-46.843-13.374-93.181-37.959-133.014
	c-2.9-4.7-9.061-6.159-13.762-3.258c-4.7,2.901-6.158,9.062-3.258,13.762c17.824,28.88,28.789,60.257,33.146,92.124
	c-3.771-4.423-8.146-9.388-13.097-14.749c-18.987-20.563-49.509-50.161-87.087-74.389c-3.47-2.237-7.801-2.053-11.018,0.118
	l-19.072,11.012c-17.287-16.385-38.058-28.388-60.799-35.132V88.508c0-5.523-4.478-10-10-10H222.94c-5.522,0-10,4.477-10,10v22.685
	c-22.741,6.744-43.512,18.747-60.799,35.132l-18.012-10.399c-3.266-2.922-8.192-3.45-12.061-0.967
	c-37.732,24.215-68.194,53.714-87.105,74.197c-4.958,5.371-9.318,10.326-13.064,14.73c6.834-49.696,29.624-97.154,67.224-134.754
	c77.73-77.73,197.255-91.761,290.661-34.119c4.698,2.899,10.861,1.441,13.762-3.259s1.441-10.861-3.258-13.762
	C342.079,8.243,284.34-4.697,227.721,1.565c-28.293,3.127-55.63,10.86-81.251,22.984c-26.511,12.545-50.563,29.516-71.488,50.44
	c-39.385,39.385-64.399,89.259-72.34,144.231c-1.695,11.732-2.552,23.569-2.595,35.403C0.001,255.088,0,255.531,0,256.008
	c0,0.545,0.001,1.034,0.06,1.544c0.312,40.791,10.291,81.43,29.191,117.426c1.788,3.406,5.265,5.354,8.862,5.353
	c1.566,0,3.156-0.369,4.64-1.148c4.89-2.568,6.772-8.613,4.205-13.503c-13.099-24.947-21.384-51.31-25.05-77.951
	c3.762,4.411,8.124,9.361,13.057,14.703c18.987,20.563,49.509,50.161,87.087,74.389c1.677,1.081,3.554,1.597,5.409,1.596
	c1.88,0,3.729-0.546,5.333-1.555l19.348-11.171c17.287,16.385,38.058,28.388,60.799,35.132v22.685c0,5.523,4.478,10,10,10h66.119
	c5.522,0,10-4.477,10-10v-22.685c22.741-6.744,43.512-18.747,60.799-35.132l17.98,10.381c1.858,1.676,4.259,2.573,6.701,2.573
	c1.849,0,3.72-0.513,5.391-1.585c37.734-24.215,68.196-53.714,87.106-74.198c4.958-5.371,9.318-10.326,13.063-14.73
	c-6.837,49.58-29.547,97.075-67.224,134.751c-74.405,74.405-190.413,90.505-282.107,39.15c-4.817-2.696-10.911-0.98-13.611,3.839
	c-2.699,4.818-0.98,10.913,3.838,13.611c38.079,21.326,81.627,32.494,125.372,32.494c11.05,0,22.113-0.713,33.103-2.154
	c56.285-7.383,107.307-32.556,147.549-72.797c20.926-20.926,37.896-44.979,50.441-71.491c12.124-25.623,19.856-52.96,22.983-81.255
	c0.999-9.043,1.503-18.114,1.533-27.17C512,256.745,512,256.387,512,256.008z M21.951,255.886
	c8.815-12.241,35.391-45.119,73.323-76.492l-9.523,16.494c-1.326,2.297-1.686,5.026-0.999,7.588s2.362,4.746,4.659,6.072
	l19.651,11.346c-2.733,11.47-4.115,23.246-4.115,35.114c0,11.868,1.382,23.644,4.115,35.114l-19.651,11.346
	c-2.297,1.326-3.973,3.51-4.659,6.072c-0.687,2.562-0.327,5.292,0.999,7.588l9.098,15.759
	C57.685,300.901,31.064,268.305,21.951,255.886z M350.976,346.307c-17.493,18.392-39.711,31.229-64.252,37.124
	c-4.495,1.08-7.664,5.101-7.664,9.724v20.353h-46.12v-20.353c0-4.623-3.169-8.644-7.664-9.724
	c-24.541-5.895-46.759-18.731-64.252-37.124c-3.185-3.347-8.246-4.079-12.246-1.769l-17.647,10.189l-23.06-39.94l17.623-10.174
	c4-2.309,5.897-7.057,4.592-11.487c-3.543-12.02-5.339-24.508-5.339-37.118s1.796-25.099,5.339-37.118
	c1.306-4.43-0.592-9.178-4.592-11.487l-17.623-10.174l23.06-39.94l17.647,10.189c4,2.31,9.063,1.579,12.246-1.769
	c17.493-18.392,39.711-31.229,64.252-37.124c4.495-1.08,7.664-5.101,7.664-9.724V98.508h46.119v20.353
	c0,4.623,3.169,8.644,7.664,9.724c24.541,5.895,46.759,18.731,64.252,37.124c3.185,3.347,8.246,4.079,12.246,1.769l17.647-10.189
	l23.06,39.94l-17.623,10.174c-4,2.309-5.897,7.057-4.592,11.487c3.543,12.02,5.339,24.508,5.339,37.118
	c0,12.61-1.796,25.099-5.339,37.118c-1.306,4.43,0.592,9.178,4.592,11.487l17.623,10.174l-23.06,39.94l-17.647-10.189
	C359.224,342.23,354.16,342.96,350.976,346.307z M416.723,332.627l9.526-16.5c1.326-2.297,1.686-5.026,0.999-7.588
	s-2.362-4.746-4.659-6.072l-19.651-11.346c2.733-11.47,4.115-23.246,4.115-35.114c0-11.868-1.382-23.644-4.115-35.114l19.651-11.346
	c2.297-1.326,3.973-3.51,4.659-6.072c0.687-2.562,0.327-5.292-0.999-7.588l-9.098-15.758c37.165,30.985,63.785,63.581,72.899,76
	C481.234,268.371,454.658,301.252,416.723,332.627z"/>
<g>
</g>
<g>
</g>
<g>
</g>
<g>
</g>
<g>
</g>
<g>
</g>
<g>
</g>
<g>
</g>
<g>
</g>
<g>
</g>
<g>
</g>
<g>
</g>
<g>
</g>
<g>
</g>
<g>
</g>
</svg>
